<?xml version="1.0" standalone="no"?>
<!DOCTYPE svg PUBLIC "-//W3C//DTD SVG 20010904//EN"
 "http://www.w3.org/TR/2001/REC-SVG-20010904/DTD/svg10.dtd">
<svg version="1.0" xmlns="http://www.w3.org/2000/svg"
 width="192.000000pt" height="192.000000pt" viewBox="0 0 192.000000 192.000000"
 preserveAspectRatio="xMidYMid meet">
<metadata>
Created by potrace 1.14, written by Peter Selinger 2001-2017
</metadata>
<g transform="translate(0.000000,192.000000) scale(0.100000,-0.100000)"
fill="#000000" stroke="none">
<path d="M1464 1295 c-104 -51 -173 -135 -131 -162 6 -4 102 -8 211 -8 150 0
200 -3 203 -12 4 -10 -47 -13 -230 -13 l-235 0 -6 34 c-8 42 -41 86 -65 86
-24 0 -45 -25 -71 -85 -27 -63 -17 -91 35 -101 35 -6 36 -7 18 -26 -32 -36
-71 -50 -119 -42 -24 3 -44 2 -44 -3 0 -11 45 -37 92 -52 51 -17 90 5 126 69
l27 50 260 0 261 0 16 60 c15 57 15 62 -2 83 -17 21 -26 22 -157 23 -247 3
-264 4 -259 13 4 5 39 22 79 37 67 25 107 53 107 75 0 18 -47 8 -116 -26z
m-254 -183 c-6 -2 -18 -1 -26 2 -14 5 -14 9 -3 22 12 14 14 14 26 -2 9 -13 10
-20 3 -22z"/>
<path d="M1620 1293 c-62 -22 -32 -29 35 -8 l54 18 101 -58 c56 -31 104 -54
107 -51 8 8 13 4 -96 64 -102 56 -127 61 -201 35z"/>
<path d="M456 1255 c-22 -22 -20 -42 4 -55 14 -8 25 -7 40 2 25 16 22 36 -6
55 -19 12 -24 12 -38 -2z"/>
<path d="M567 1203 c-13 -24 -12 -32 4 -71 11 -24 19 -50 19 -58 0 -40 -141
-61 -173 -26 -20 21 -22 54 -6 84 7 13 8 23 1 30 -14 14 -38 -25 -53 -85 -22
-89 22 -134 120 -125 63 6 122 37 141 74 20 40 18 131 -3 172 -21 39 -32 40
-50 5z"/>
<path d="M999 1199 c-11 -27 -10 -36 4 -60 9 -16 13 -30 9 -32 -18 -10 -142
-8 -142 3 0 6 -10 34 -21 61 -19 43 -25 50 -48 47 -29 -3 -65 -51 -83 -110
-14 -48 1 -68 58 -77 l38 -6 -49 -33 c-45 -30 -55 -32 -97 -27 -83 12 -49 -27
47 -54 32 -9 44 -8 64 6 32 21 57 50 72 86 11 27 12 27 109 27 l99 0 6 54 c7
56 2 86 -23 124 -19 30 -27 28 -43 -9z m-195 -75 c4 -11 0 -15 -16 -12 -12 2
-23 9 -26 16 -6 18 35 15 42 -4z"/>
<path d="M170 1180 c0 -5 4 -10 9 -10 6 0 13 5 16 10 3 6 -1 10 -9 10 -9 0
-16 -4 -16 -10z"/>
<path d="M1867 1163 c-13 -13 -7 -21 13 -16 11 3 17 9 14 14 -6 11 -18 12 -27
2z"/>
<path d="M1853 1115 c5 -16 43 -17 55 -2 9 11 5 13 -23 13 -19 -1 -33 -5 -32
-11z"/>
<path d="M120 1080 c21 -39 95 -62 130 -40 11 7 5 10 -23 10 -40 0 -97 24 -97
40 0 6 -5 10 -10 10 -7 0 -7 -6 0 -20z"/>
<path d="M1380 987 c-23 -37 -24 -49 -9 -64 9 -9 37 -116 39 -145 0 -5 -29 -8
-65 -8 -47 0 -65 4 -64 13 1 6 1 28 0 47 l-2 35 -25 -30 c-13 -16 -23 -38 -20
-47 3 -13 -2 -18 -16 -18 -18 0 -20 4 -14 40 8 49 -12 46 -40 -6 -17 -30 -23
-34 -60 -34 l-42 0 5 43 6 42 -27 -24 c-14 -14 -26 -33 -26 -44 0 -17 -5 -19
-31 -13 -17 3 -49 6 -70 6 -32 0 -41 5 -56 30 -22 38 -37 38 -53 1 -10 -25 -9
-34 6 -61 22 -37 16 -51 -47 -99 -39 -30 -47 -32 -91 -27 -59 8 -61 -4 -5 -31
74 -36 100 -37 136 -7 18 14 41 44 52 65 l19 39 68 1 c37 0 162 0 279 -1 163
-1 213 2 219 12 5 7 8 51 7 97 -2 71 1 89 19 114 21 29 21 30 2 40 -10 6 -32
23 -47 38 l-28 28 -19 -32z"/>
<path d="M947 992 c-22 -24 -21 -29 7 -47 42 -28 82 10 50 46 -21 24 -36 24
-57 1z"/>
<path d="M1520 965 c-21 -33 -21 -40 -11 -117 18 -130 17 -135 -24 -142 -19
-4 -35 -11 -35 -16 0 -13 12 -13 46 0 21 8 29 8 36 -2 6 -10 10 -10 17 1 5 8
20 15 33 16 12 1 80 5 151 9 70 5 129 12 132 16 5 8 -96 19 -217 22 -65 2 -78
5 -78 19 0 18 32 23 237 35 l112 6 -1 29 c-1 16 -5 26 -9 23 -5 -3 -83 -6
-174 -8 -150 -3 -165 -2 -165 14 0 20 74 30 227 30 111 0 123 4 123 41 0 22
-5 29 -19 29 -11 0 -21 -4 -23 -9 -2 -5 -51 -5 -118 -1 -63 5 -134 9 -157 9
-31 1 -43 5 -43 16 0 25 -17 17 -40 -20z"/>
<path d="M35 960 c-4 -6 35 -10 109 -10 71 0 116 4 116 10 0 6 -43 10 -109 10
-63 0 -112 -4 -116 -10z"/>
<path d="M347 883 c-4 -3 -43 -6 -87 -6 -44 1 -83 -3 -86 -8 -3 -5 26 -9 65
-9 l71 0 -10 -26 c-13 -33 -13 -34 4 -34 28 0 28 -21 -1 -62 -24 -35 -28 -52
-30 -116 -2 -83 -8 -92 -61 -92 -24 0 -42 9 -63 29 -16 16 -29 24 -29 17 0
-20 34 -46 74 -57 27 -8 42 -6 65 5 25 13 31 13 40 2 18 -21 107 -39 154 -32
54 9 107 35 107 52 0 11 -17 14 -73 14 -41 0 -77 3 -81 7 -3 4 -16 8 -27 10
-34 5 -79 43 -79 66 0 21 47 97 60 97 4 0 15 -11 24 -25 16 -25 17 -25 180
-25 l164 0 6 31 c10 53 7 97 -11 134 -20 41 -35 44 -53 10 -11 -21 -11 -29 0
-52 8 -16 16 -31 18 -35 2 -5 -56 -8 -128 -8 l-130 0 16 25 c21 33 10 64 -32
81 -36 15 -57 18 -67 7z"/>
<path d="M122 798 c5 -14 127 -28 135 -16 2 5 -16 8 -41 8 -24 0 -57 5 -71 10
-20 8 -26 7 -23 -2z"/>
<path d="M1340 660 c-248 -82 -336 -107 -354 -98 -14 8 -17 7 -14 -4 3 -7 13
-14 24 -16 23 -3 392 112 408 128 14 14 1 12 -64 -10z"/>
<path d="M409 648 c-10 -18 -8 -24 11 -40 20 -16 25 -17 38 -5 12 13 18 13 41
1 24 -13 28 -12 44 7 23 29 22 37 -9 51 -19 9 -30 9 -43 1 -11 -7 -23 -8 -32
-2 -23 14 -38 10 -50 -13z"/>
</g>
</svg>
